<?xml version="1.0" encoding="iso-8859-1"?>
<!-- Generator: Adobe Illustrator 19.0.0, SVG Export Plug-In . SVG Version: 6.00 Build 0)  -->
<svg version="1.1" id="Capa_1" xmlns="http://www.w3.org/2000/svg" xmlns:xlink="http://www.w3.org/1999/xlink" x="0px" y="0px"
	 viewBox="0 0 512 512" style="enable-background:new 0 0 512 512;" xml:space="preserve">
<path style="fill:#E0BE94;" d="M49.449,132.182V80.591H508c2.209,0,4,1.791,4,4v47.591H49.449z"/>
<path style="fill:#C4A385;" d="M481.095,80.591v51.591H512V84.591c0-2.209-1.791-4-4-4H481.095z"/>
<path style="fill:#7A666C;" d="M49.449,479V132.182H512V479c0,2.209-1.791,4-4,4H53.449C51.24,483,49.449,481.209,49.449,479z"/>
<path style="fill:#6A545A;" d="M481.095,132.182V483H508c2.209,0,4-1.791,4-4V132.182H481.095z"/>
<path style="fill:#7A666C;" d="M0,80.591V33c0-2.209,1.791-4,4-4h454.551c2.209,0,4,1.791,4,4v47.591H0z"/>
<path style="fill:#6A545A;" d="M431.646,29v51.591h30.905V33c0-2.209-1.791-4-4-4H431.646z"/>
<path style="fill:#FF993B;" d="M0,427.409V80.591h462.551v346.818c0,2.209-1.791,4-4,4H4C1.791,431.409,0,429.618,0,427.409z"/>
<path style="fill:#FF7B48;" d="M431.646,80.591v350.818h26.905c2.209,0,4-1.791,4-4V80.591H431.646z"/>
<path style="fill:#FF5A51;" d="M0,80.591V33c0-2.209,1.791-4,4-4h111.38v51.591H0z"/>
<path style="fill:#FFD681;" d="M123.107,376.188v-20.604c0-11.379,9.225-20.604,20.604-20.604H308.54
	c11.379,0,20.604,9.225,20.604,20.604v20.604c0,11.379-9.225,20.604-20.604,20.604H143.71
	C132.331,396.791,123.107,387.567,123.107,376.188z"/>
<g>
	<circle style="fill:#FFBD2A;" cx="29.875" cy="55.12" r="7.726"/>
	<circle style="fill:#FFBD2A;" cx="87.56" cy="55.12" r="7.726"/>
	<circle style="fill:#FFBD2A;" cx="58.72" cy="55.12" r="7.726"/>
</g>
<g>
	<path style="fill:#FFD681;" d="M128.296,143.317c-1.064-2.979-3.883-4.971-7.047-4.978c-0.005,0-0.01,0-0.016,0
		c-3.157,0-5.978,1.978-7.052,4.948c-0.122,0.335-12.279,33.93-24.282,67.317c-24.709,68.73-24.715,69.341-24.73,71.153
		c-0.037,4.142,3.292,7.529,7.434,7.565c0.023,0,0.045,0,0.067,0c3.606,0,6.627-2.55,7.339-5.957
		c0.821-2.776,6.64-19.223,14.476-41.124H147.7l15.037,42.103c1.095,3.067,3.983,4.979,7.063,4.979c0.837,0,1.689-0.141,2.522-0.439
		c3.901-1.393,5.934-5.685,4.541-9.585L128.296,143.317z M99.859,227.243c6.748-18.806,14.343-39.882,21.33-59.226l21.152,59.226
		H99.859z"/>
	<path style="fill:#FFD681;" d="M196.289,138.339h-2.649c-4.142,0-7.5,3.358-7.5,7.5v135.984c0,4.142,3.358,7.5,7.5,7.5h2.649
		c41.626,0,75.492-33.866,75.492-75.492S237.916,138.339,196.289,138.339z M201.14,274.131V153.532
		c31.096,2.479,55.641,28.577,55.641,60.3S232.236,271.652,201.14,274.131z"/>
	<path style="fill:#FFD681;" d="M339.295,203.682h-16.294c-12.662,0-22.964-10.302-22.964-22.964v-4.415
		c0-12.662,10.302-22.964,22.964-22.964h9.714c12.662,0,22.964,10.302,22.964,22.964c0,4.142,3.357,7.5,7.5,7.5s7.5-3.358,7.5-7.5
		c0-20.933-17.03-37.964-37.964-37.964h-9.714c-20.934,0-37.964,17.031-37.964,37.964v4.415c0,20.934,17.03,37.964,37.964,37.964
		h16.294c9.034,0,16.384,7.35,16.384,16.384v16.293c0,12.662-10.302,22.964-22.964,22.964h-9.714
		c-12.662,0-22.964-10.302-22.964-22.964v-4.856c0-4.142-3.357-7.5-7.5-7.5s-7.5,3.358-7.5,7.5v4.856
		c0,20.934,17.03,37.964,37.964,37.964h9.714c20.934,0,37.964-17.03,37.964-37.964v-16.293
		C370.679,217.761,356.6,203.682,339.295,203.682z"/>
</g>
<g>
</g>
<g>
</g>
<g>
</g>
<g>
</g>
<g>
</g>
<g>
</g>
<g>
</g>
<g>
</g>
<g>
</g>
<g>
</g>
<g>
</g>
<g>
</g>
<g>
</g>
<g>
</g>
<g>
</g>
</svg>
