<?xml version="1.0" encoding="iso-8859-1"?>
<!-- Generator: Adobe Illustrator 19.0.0, SVG Export Plug-In . SVG Version: 6.00 Build 0)  -->
<svg version="1.1" id="Capa_1" xmlns="http://www.w3.org/2000/svg" xmlns:xlink="http://www.w3.org/1999/xlink" x="0px" y="0px"
	 viewBox="0 0 480 480" style="enable-background:new 0 0 480 480;" xml:space="preserve">
<circle style="fill:#A3EA0A;" cx="88" cy="88" r="80"/>
<circle style="fill:#F7EC2F;" cx="312" cy="88" r="64"/>
<g>
	<circle style="fill:#3F4E56;" cx="88" cy="72" r="32"/>
	<path style="fill:#3F4E56;" d="M94.848,104H81.152C62.84,104,48,118.84,48,137.152v20.056C59.776,164.032,73.408,168,88,168
		s28.224-3.968,40-10.792v-20.056C128,118.84,113.16,104,94.848,104z"/>
</g>
<path style="fill:#D3D3D3;" d="M232,240h240v232H232V240z"/>
<path style="fill:#ED4720;" d="M232,240v36c0,11.048,8.952,20,20,20s20-8.952,20-20v-36H232z"/>
<path style="fill:#F5FAFC;" d="M272,240v36c0,11.048,8.952,20,20,20s20-8.952,20-20v-36H272z"/>
<path style="fill:#ED4720;" d="M312,240v36c0,11.048,8.952,20,20,20s20-8.952,20-20v-36H312z"/>
<g>
	<path style="fill:#F5FAFC;" d="M352,240v36c0,11.048,8.952,20,20,20s20-8.952,20-20v-36H352z"/>
	<path style="fill:#F5FAFC;" d="M432,240v36c0,11.048,8.952,20,20,20s20-8.952,20-20v-36H432z"/>
</g>
<path style="fill:#ED4720;" d="M392,240v36c0,11.048,8.952,20,20,20s20-8.952,20-20v-36H392z"/>
<path style="fill:#55D5F2;" d="M166.264,336H16l21.464,80h107.328L166.264,336z"/>
<g>
	<circle style="fill:#3F4E56;" cx="60" cy="456" r="16"/>
	<circle style="fill:#3F4E56;" cx="124" cy="456" r="16"/>
</g>
<g>
	<path style="fill:#55D5F2;" d="M264,376h64v96h-64V376z"/>
	<path style="fill:#55D5F2;" d="M360,328h80v56h-80V328z"/>
</g>
<path d="M472,232h-40h-40h-40h-40h-40h-40c-4.416,0-8,3.584-8,8v36v196c0,4.416,3.584,8,8,8h32h64h144c4.416,0,8-3.584,8-8V276v-36
	C480,235.584,476.416,232,472,232z M272,384h48v80h-48V384z M328,368h-64c-4.416,0-8,3.584-8,8v88h-16V301.192
	c3.648,1.744,7.688,2.808,12,2.808c7.84,0,14.912-3.256,20-8.464c5.088,5.208,12.16,8.464,20,8.464s14.912-3.256,20-8.464
	c5.088,5.208,12.16,8.464,20,8.464s14.912-3.256,20-8.464c5.088,5.208,12.16,8.464,20,8.464s14.912-3.256,20-8.464
	c5.088,5.208,12.16,8.464,20,8.464s14.912-3.256,20-8.464c5.088,5.208,12.16,8.464,20,8.464c4.312,0,8.352-1.064,12-2.808V464H336
	v-88C336,371.584,332.416,368,328,368z M464,276c0,6.616-5.384,12-12,12s-12-5.384-12-12v-28h24V276z M424,276
	c0,6.616-5.384,12-12,12s-12-5.384-12-12v-28h24V276z M384,276c0,6.616-5.384,12-12,12s-12-5.384-12-12v-28h24V276z M344,276
	c0,6.616-5.384,12-12,12s-12-5.384-12-12v-28h24V276z M304,276c0,6.616-5.384,12-12,12s-12-5.384-12-12v-28h24V276z M264,276
	c0,6.616-5.384,12-12,12s-12-5.384-12-12v-28h24V276z"/>
<path d="M144.8,424c3.624,0,6.792-2.432,7.728-5.928l21.464-80c0.008-0.016,0-0.04,0-0.056h0.016L180.792,312H208v-16h-33.392
	c-3.64,0-6.824,2.456-7.744,5.984L160.08,328H16c-2.488,0-4.832,1.16-6.344,3.136s-2.024,4.536-1.376,6.944l21.464,80
	c0.928,3.488,4.096,5.92,7.72,5.92H52v9.472c-9.288,3.312-16,12.112-16,22.528c0,13.232,10.768,24,24,24s24-10.768,24-24
	c0-10.416-6.712-19.216-16-22.528V424h48v9.472c-9.288,3.312-16,12.112-16,22.528c0,13.232,10.768,24,24,24s24-10.768,24-24
	c0-10.416-6.712-19.216-16-22.528V424H144.8z M155.832,344l-17.168,64H43.6l-17.168-64H155.832z M60,464c-4.408,0-8-3.592-8-8
	s3.592-8,8-8s8,3.592,8,8S64.408,464,60,464z M124,464c-4.408,0-8-3.592-8-8s3.592-8,8-8c4.408,0,8,3.592,8,8S128.408,464,124,464z"
	/>
<path d="M424,80h-40.472c-4-35.944-34.536-64-71.528-64s-67.528,28.056-71.528,64h-64.88C171.536,35.216,133.824,0,88,0
	C39.48,0,0,39.48,0,88c0,32.368,17.616,60.64,43.72,75.92c0.096,0.064,0.176,0.152,0.272,0.208c0.128,0.072,0.264,0.12,0.392,0.192
	c6.248,3.584,12.976,6.4,20.064,8.376c0.656,0.184,1.32,0.344,1.984,0.512c2.784,0.704,5.624,1.272,8.504,1.704
	c0.816,0.128,1.632,0.272,2.448,0.376C80.872,175.72,84.4,176,88,176s7.128-0.28,10.616-0.704c0.824-0.104,1.632-0.248,2.448-0.376
	c2.888-0.432,5.72-1,8.504-1.704c0.664-0.168,1.328-0.328,1.984-0.512c7.088-1.976,13.808-4.792,20.064-8.376
	c0.128-0.072,0.264-0.12,0.392-0.192c0.104-0.056,0.176-0.144,0.272-0.208c23.92-14.008,40.68-38.928,43.312-67.92h64.88
	c4,35.944,34.536,64,71.528,64s67.528-28.056,71.528-64H416v92.688l-18.344-18.344l-11.312,11.312l32,32
	c1.56,1.552,3.608,2.336,5.656,2.336s4.096-0.784,5.656-2.344l32-32l-11.312-11.312L432,188.688V88C432,83.584,428.416,80,424,80
	L424,80z M304,32.64v15.672c-10.416,3.352-18.008,12.92-18.008,24.296c0,18.064,14.24,22.416,23.664,25.304
	c10.504,3.216,12.352,4.712,12.352,10.032c0,5.336-4.488,9.672-10.008,9.672s-10.008-4.336-10.008-9.664h-16
	c0,11.384,7.592,20.944,18.008,24.296v11.12c-27.096-3.904-48-27.208-48-55.36S276.904,36.544,304,32.64z M320,143.36v-11.12
	c10.416-3.352,18.008-12.92,18.008-24.304c0-18.088-14.248-22.448-23.68-25.336c-10.496-3.208-12.336-4.704-12.336-10
	c0-5.336,4.488-9.664,10.008-9.664s10.008,4.336,10.008,9.664h16c0-11.384-7.592-20.944-18.008-24.296V32.64
	c27.096,3.904,48,27.208,48,55.36S347.096,139.456,320,143.36L320,143.36z M56,152.432v-15.288C56,123.28,67.28,112,81.152,112
	h13.704C108.72,112,120,123.28,120,137.152v15.288C100.096,162.352,75.904,162.352,56,152.432z M64,72c0-13.232,10.768-24,24-24
	s24,10.768,24,24s-10.768,24-24,24S64,85.232,64,72z M136,141.512v-4.36c0-15.384-8.584-28.664-21.128-35.728
	C122.88,94.104,128,83.68,128,72c0-22.056-17.944-40-40-40S48,49.944,48,72c0,11.68,5.12,22.104,13.128,29.424
	C48.584,108.48,40,121.768,40,137.152v4.36C25.312,128.32,16,109.248,16,88c0-39.696,32.304-72,72-72s72,32.304,72,72
	C160,109.248,150.688,128.32,136,141.512z"/>
<path d="M96,312v-92.688l18.344,18.344l11.312-11.312l-32-32c-3.128-3.128-8.184-3.128-11.312,0l-32,32l11.312,11.312L80,219.312
	V312H96z"/>
<path d="M360,392h80c4.416,0,8-3.584,8-8v-56c0-4.416-3.584-8-8-8h-80c-4.416,0-8,3.584-8,8v56C352,388.416,355.584,392,360,392z
	 M368,336h64v40h-64V336z"/>
<g>
</g>
<g>
</g>
<g>
</g>
<g>
</g>
<g>
</g>
<g>
</g>
<g>
</g>
<g>
</g>
<g>
</g>
<g>
</g>
<g>
</g>
<g>
</g>
<g>
</g>
<g>
</g>
<g>
</g>
</svg>
